<svg xmlns="http://www.w3.org/2000/svg" width="1600" height="1000" viewBox="0 0 1600 1000" role="img" aria-label="进入演示：小明已登录">
<defs>
  <filter id="softShadow" x="-20%" y="-20%" width="140%" height="140%"><feDropShadow dx="0" dy="16" stdDeviation="22" flood-color="#111213" flood-opacity="0.12"/></filter>
  <filter id="smallShadow" x="-20%" y="-20%" width="140%" height="140%"><feDropShadow dx="0" dy="8" stdDeviation="10" flood-color="#111213" flood-opacity="0.08"/></filter>
  <linearGradient id="warmGrad" x1="0" y1="0" x2="1" y2="1"><stop stop-color="#FFFDF8"/><stop offset="1" stop-color="#F5EBD8"/></linearGradient>
  <linearGradient id="yellowGrad" x1="0" y1="0" x2="1" y2="0"><stop stop-color="#FFCC33"/><stop offset="1" stop-color="#FFD84D"/></linearGradient>
  <linearGradient id="darkGrad" x1="0" y1="0" x2="1" y2="1"><stop stop-color="#111213"/><stop offset="1" stop-color="#2A2620"/></linearGradient>
  <clipPath id="roundCard"><rect x="0" y="0" width="100" height="100" rx="26"/></clipPath>
</defs>
<rect x="0" y="0" width="1600" height="1000" rx="0" fill="#F7F1E7" stroke="none" stroke-width="1" opacity="1"/>
<rect x="76" y="82" width="86" height="86" rx="0" fill="#FFFDF8" stroke="none" stroke-width="1" opacity="0.92"/>
<path d="M1220 70 C1420 30 1562 132 1552 314 C1540 466 1364 506 1238 414 C1120 328 1126 142 1220 70 Z" fill="#706736" stroke="none" stroke-width="1" opacity="0.18"/>
<circle cx="1370" cy="190" r="238" fill="#FFCC33" stroke="none" stroke-width="1" opacity="0.22"/>
<path d="M0 770 C162 690 358 732 450 912 L450 1000 L0 1000 Z" fill="#C9D1D3" stroke="none" stroke-width="1" opacity="0.7"/>
<circle cx="122" cy="884" r="210" fill="#DDE7E8" stroke="none" stroke-width="1" opacity="0.55"/>
<circle cx="1510" cy="920" r="210" fill="#FFCC33" stroke="none" stroke-width="1" opacity="0.13"/>
<rect x="120" y="56" width="1360" height="76" rx="38" fill="#FFFDF8" stroke="#E7DDCE" stroke-width="1" opacity="1" filter="url(#smallShadow)"/>
<circle cx="158" cy="94" r="18" fill="#FFCC33" stroke="none" stroke-width="1" opacity="1"/>
<circle cx="166" cy="86" r="7" fill="#111213" stroke="none" stroke-width="1" opacity="1"/>
<text x="192" y="101" font-family="Noto Sans CJK SC, Microsoft YaHei, PingFang SC, Hiragino Sans GB, Arial, sans-serif" font-size="18" fill="#111213" font-weight="800" text-anchor="start" opacity="1">
<tspan x="192" dy="0">周末有谱</tspan>
</text>
<rect x="372" y="72" width="116" height="44" rx="22" fill="#FFCC33" stroke="none" stroke-width="1" opacity="1" filter="url(#smallShadow)"/>
<text x="430" y="99" font-family="Noto Sans CJK SC, Microsoft YaHei, PingFang SC, Hiragino Sans GB, Arial, sans-serif" font-size="15" fill="#111213" font-weight="800" text-anchor="middle" opacity="1">
<tspan x="430" dy="0">首页</tspan>
</text>
<text x="570" y="99" font-family="Noto Sans CJK SC, Microsoft YaHei, PingFang SC, Hiragino Sans GB, Arial, sans-serif" font-size="15" fill="#111213" font-weight="700" text-anchor="middle" opacity="1">
<tspan x="570" dy="0">功能页卡</tspan>
</text>
<text x="720" y="99" font-family="Noto Sans CJK SC, Microsoft YaHei, PingFang SC, Hiragino Sans GB, Arial, sans-serif" font-size="15" fill="#111213" font-weight="700" text-anchor="middle" opacity="1">
<tspan x="720" dy="0">场景案例</tspan>
</text>
<text x="875" y="99" font-family="Noto Sans CJK SC, Microsoft YaHei, PingFang SC, Hiragino Sans GB, Arial, sans-serif" font-size="15" fill="#111213" font-weight="700" text-anchor="middle" opacity="1">
<tspan x="875" dy="0">设计亮点</tspan>
</text>
<text x="1010" y="99" font-family="Noto Sans CJK SC, Microsoft YaHei, PingFang SC, Hiragino Sans GB, Arial, sans-serif" font-size="15" fill="#111213" font-weight="700" text-anchor="middle" opacity="1">
<tspan x="1010" dy="0">开发者</tspan>
</text>
<text x="1148" y="99" font-family="Noto Sans CJK SC, Microsoft YaHei, PingFang SC, Hiragino Sans GB, Arial, sans-serif" font-size="15" fill="#111213" font-weight="700" text-anchor="middle" opacity="1">
<tspan x="1148" dy="0">个人中心</tspan>
</text>
<text x="1278" y="99" font-family="Noto Sans CJK SC, Microsoft YaHei, PingFang SC, Hiragino Sans GB, Arial, sans-serif" font-size="15" fill="#111213" font-weight="800" text-anchor="middle" opacity="1">
<tspan x="1278" dy="0">小明</tspan>
</text>
<rect x="1334" y="72" width="112" height="44" rx="22.0" fill="#151515" stroke="none" stroke-width="1" opacity="1"/>
<text x="1390.0" y="98.5" font-family="Noto Sans CJK SC, Microsoft YaHei, PingFang SC, Hiragino Sans GB, Arial, sans-serif" font-size="15" fill="#FFFFFF" font-weight="800" text-anchor="middle" opacity="1">
<tspan x="1390.0" dy="0">退出</tspan>
</text>
<text x="120" y="210" font-family="Noto Sans CJK SC, Microsoft YaHei, PingFang SC, Hiragino Sans GB, Arial, sans-serif" font-size="40" fill="#111213" font-weight="900" text-anchor="start" opacity="1">
<tspan x="120" dy="0">进入演示：小明已登录</tspan>
</text>
<text x="122" y="255" font-family="Noto Sans CJK SC, Microsoft YaHei, PingFang SC, Hiragino Sans GB, Arial, sans-serif" font-size="16" fill="#6F6A62" font-weight="700" text-anchor="start" opacity="1">
<tspan x="122" dy="0">登录态导航保留“小明/退出”，功能流程不会中途跳到个人中心。</tspan>
</text>
<text x="120" y="370" font-family="Noto Sans CJK SC, Microsoft YaHei, PingFang SC, Hiragino Sans GB, Arial, sans-serif" font-size="48" fill="#111213" font-weight="900" text-anchor="start" opacity="1">
<tspan x="120" dy="0">一句话，把周末安排到可执行</tspan>
</text>
<text x="122" y="455" font-family="Noto Sans CJK SC, Microsoft YaHei, PingFang SC, Hiragino Sans GB, Arial, sans-serif" font-size="18" fill="#6F6A62" font-weight="800" text-anchor="start" opacity="1">
<tspan x="122" dy="0">围绕杭州西湖示例：从浙大紫金港出发，自动判断距离、天气、排队、餐厅库存，</tspan>
<tspan x="122" dy="28">并把计划发给老婆/朋友确认。</tspan>
</text>
<rect x="122" y="545" width="176" height="48" rx="24.0" fill="#FFCC33" stroke="none" stroke-width="1" opacity="1" filter="url(#smallShadow)"/>
<text x="210.0" y="574.0" font-family="Noto Sans CJK SC, Microsoft YaHei, PingFang SC, Hiragino Sans GB, Arial, sans-serif" font-size="16" fill="#111213" font-weight="800" text-anchor="middle" opacity="1">
<tspan x="210.0" dy="0">开始演示</tspan>
</text>
<rect x="318" y="545" width="176" height="48" rx="24.0" fill="#151515" stroke="none" stroke-width="1" opacity="1"/>
<text x="406.0" y="574.0" font-family="Noto Sans CJK SC, Microsoft YaHei, PingFang SC, Hiragino Sans GB, Arial, sans-serif" font-size="16" fill="#FFFFFF" font-weight="800" text-anchor="middle" opacity="1">
<tspan x="406.0" dy="0">查看流程</tspan>
</text>
<rect x="760" y="305" width="690" height="520" rx="30" fill="#EFE6D8" stroke="#E7DDCE" stroke-width="1" opacity="1" filter="url(#softShadow)"/>
<rect x="800" y="357" width="120" height="46" rx="12" fill="#FFF8EA" stroke="#E3D7C7" stroke-width="1" opacity="0.75"/>
<rect x="953" y="357" width="120" height="46" rx="12" fill="#FFF8EA" stroke="#E3D7C7" stroke-width="1" opacity="0.75"/>
<rect x="1106" y="357" width="120" height="46" rx="12" fill="#FFF8EA" stroke="#E3D7C7" stroke-width="1" opacity="0.75"/>
<rect x="1259" y="357" width="120" height="46" rx="12" fill="#FFF8EA" stroke="#E3D7C7" stroke-width="1" opacity="0.75"/>
<rect x="800" y="530" width="120" height="46" rx="12" fill="#FFF8EA" stroke="#E3D7C7" stroke-width="1" opacity="0.75"/>
<rect x="953" y="530" width="120" height="46" rx="12" fill="#FFF8EA" stroke="#E3D7C7" stroke-width="1" opacity="0.75"/>
<rect x="1106" y="530" width="120" height="46" rx="12" fill="#FFF8EA" stroke="#E3D7C7" stroke-width="1" opacity="0.75"/>
<rect x="1259" y="530" width="120" height="46" rx="12" fill="#FFF8EA" stroke="#E3D7C7" stroke-width="1" opacity="0.75"/>
<path d="M1139 360 C1346 355 1410 485 1386 615 C1312 775 1125 755 1146 565 Z" fill="#CFE5DD" stroke="none" stroke-width="1" opacity="0.85"/>
<path d="M 840 745 L 945 655 L 1070 615 L 1190 515 L 1350 480 L 1330 590" fill="none" stroke="#FFCC33" stroke-width="8" opacity="1"/>
<path d="M 840 745 L 945 655 L 1070 615 L 1190 515 L 1350 480 L 1330 590" fill="none" stroke="#111213" stroke-width="2" opacity="0.6" stroke-dasharray="10 10"/>
<circle cx="840" cy="745" r="12" fill="#FFCC33" stroke="#111213" stroke-width="3" opacity="1"/>
<rect x="856" y="730" width="108" height="28" rx="14" fill="#FFFDF8" stroke="#E7DDCE" stroke-width="1" opacity="1"/>
<text x="866" y="749" font-family="Noto Sans CJK SC, Microsoft YaHei, PingFang SC, Hiragino Sans GB, Arial, sans-serif" font-size="11" fill="#111213" font-weight="800" text-anchor="start" opacity="1">
<tspan x="866" dy="0">浙大紫金港</tspan>
</text>
<circle cx="945" cy="655" r="12" fill="#FFCC33" stroke="#111213" stroke-width="3" opacity="1"/>
<rect x="961" y="640" width="108" height="28" rx="14" fill="#FFFDF8" stroke="#E7DDCE" stroke-width="1" opacity="1"/>
<text x="971" y="659" font-family="Noto Sans CJK SC, Microsoft YaHei, PingFang SC, Hiragino Sans GB, Arial, sans-serif" font-size="11" fill="#111213" font-weight="800" text-anchor="start" opacity="1">
<tspan x="971" dy="0">地铁/打车</tspan>
</text>
<circle cx="1070" cy="615" r="12" fill="#FFCC33" stroke="#111213" stroke-width="3" opacity="1"/>
<rect x="1086" y="600" width="84" height="28" rx="14" fill="#FFFDF8" stroke="#E7DDCE" stroke-width="1" opacity="1"/>
<text x="1096" y="619" font-family="Noto Sans CJK SC, Microsoft YaHei, PingFang SC, Hiragino Sans GB, Arial, sans-serif" font-size="11" fill="#111213" font-weight="800" text-anchor="start" opacity="1">
<tspan x="1096" dy="0">断桥</tspan>
</text>
<circle cx="1190" cy="515" r="12" fill="#FFCC33" stroke="#111213" stroke-width="3" opacity="1"/>
<rect x="1206" y="500" width="84" height="28" rx="14" fill="#FFFDF8" stroke="#E7DDCE" stroke-width="1" opacity="1"/>
<text x="1216" y="519" font-family="Noto Sans CJK SC, Microsoft YaHei, PingFang SC, Hiragino Sans GB, Arial, sans-serif" font-size="11" fill="#111213" font-weight="800" text-anchor="start" opacity="1">
<tspan x="1216" dy="0">白堤散步</tspan>
</text>
<circle cx="1350" cy="480" r="12" fill="#FFCC33" stroke="#111213" stroke-width="3" opacity="1"/>
<rect x="1366" y="465" width="84" height="28" rx="14" fill="#FFFDF8" stroke="#E7DDCE" stroke-width="1" opacity="1"/>
<text x="1376" y="484" font-family="Noto Sans CJK SC, Microsoft YaHei, PingFang SC, Hiragino Sans GB, Arial, sans-serif" font-size="11" fill="#111213" font-weight="800" text-anchor="start" opacity="1">
<tspan x="1376" dy="0">湖滨银泰</tspan>
</text>
<circle cx="1330" cy="590" r="12" fill="#FFCC33" stroke="#111213" stroke-width="3" opacity="1"/>
<rect x="1346" y="575" width="84" height="28" rx="14" fill="#FFFDF8" stroke="#E7DDCE" stroke-width="1" opacity="1"/>
<text x="1356" y="594" font-family="Noto Sans CJK SC, Microsoft YaHei, PingFang SC, Hiragino Sans GB, Arial, sans-serif" font-size="11" fill="#111213" font-weight="800" text-anchor="start" opacity="1">
<tspan x="1356" dy="0">海底捞</tspan>
</text>
<text x="788" y="343" font-family="Noto Sans CJK SC, Microsoft YaHei, PingFang SC, Hiragino Sans GB, Arial, sans-serif" font-size="20" fill="#111213" font-weight="900" text-anchor="start" opacity="1">
<tspan x="788" dy="0">首页演示地图</tspan>
</text>
<rect x="1204" y="355" width="220" height="434" rx="24" fill="#FFFDF8" stroke="#E7DDCE" stroke-width="1" opacity="0.96"/>
<text x="1226" y="393" font-family="Noto Sans CJK SC, Microsoft YaHei, PingFang SC, Hiragino Sans GB, Arial, sans-serif" font-size="18" fill="#111213" font-weight="900" text-anchor="start" opacity="1">
<tspan x="1226" dy="0">路线摘要</tspan>
</text>
<text x="1226" y="429" font-family="Noto Sans CJK SC, Microsoft YaHei, PingFang SC, Hiragino Sans GB, Arial, sans-serif" font-size="13" fill="#6F6A62" font-weight="800" text-anchor="start" opacity="1">
<tspan x="1226" dy="0">从浙大紫金港出发，优先 40 </tspan>
<tspan x="1226" dy="20">分钟内可达。步行段不超过 2</tspan>
<tspan x="1226" dy="20">.2km，晚餐提前锁桌。</tspan>
</text>
<rect x="1226" y="533" width="86" height="78" rx="20" fill="#F4EBDD" stroke="#E7DDCE" stroke-width="1" opacity="1"/>
<text x="1244" y="563" font-family="Noto Sans CJK SC, Microsoft YaHei, PingFang SC, Hiragino Sans GB, Arial, sans-serif" font-size="24" fill="#111213" font-weight="900" text-anchor="start" opacity="1">
<tspan x="1244" dy="0">4.5h</tspan>
</text>
<text x="1244" y="591" font-family="Noto Sans CJK SC, Microsoft YaHei, PingFang SC, Hiragino Sans GB, Arial, sans-serif" font-size="12" fill="#6F6A62" font-weight="800" text-anchor="start" opacity="1">
<tspan x="1244" dy="0">总时长</tspan>
</text>
<rect x="1324" y="533" width="86" height="78" rx="20" fill="#F4EBDD" stroke="#E7DDCE" stroke-width="1" opacity="1"/>
<text x="1342" y="563" font-family="Noto Sans CJK SC, Microsoft YaHei, PingFang SC, Hiragino Sans GB, Arial, sans-serif" font-size="24" fill="#111213" font-weight="900" text-anchor="start" opacity="1">
<tspan x="1342" dy="0">¥420</tspan>
</text>
<text x="1342" y="591" font-family="Noto Sans CJK SC, Microsoft YaHei, PingFang SC, Hiragino Sans GB, Arial, sans-serif" font-size="12" fill="#6F6A62" font-weight="800" text-anchor="start" opacity="1">
<tspan x="1342" dy="0">预算</tspan>
</text>
<rect x="1226" y="751" width="170" height="40" rx="20.0" fill="#FFCC33" stroke="none" stroke-width="1" opacity="1" filter="url(#smallShadow)"/>
<text x="1311.0" y="774.5" font-family="Noto Sans CJK SC, Microsoft YaHei, PingFang SC, Hiragino Sans GB, Arial, sans-serif" font-size="13" fill="#111213" font-weight="800" text-anchor="middle" opacity="1">
<tspan x="1311.0" dy="0">查看导航</tspan>
</text>
<rect x="690" y="930" width="220" height="34" rx="17.0" fill="#FFFDF8" stroke="#E7DDCE" stroke-width="1" opacity="1" filter="url(#smallShadow)"/>
<text x="800.0" y="950.0" font-family="Noto Sans CJK SC, Microsoft YaHei, PingFang SC, Hiragino Sans GB, Arial, sans-serif" font-size="12" fill="#6F6A62" font-weight="800" text-anchor="middle" opacity="1">
<tspan x="800.0" dy="0">007 / 100 · 首页</tspan>
</text>
</svg>