<svg xmlns="http://www.w3.org/2000/svg" width="1600" height="1000" viewBox="0 0 1600 1000" role="img" aria-label="分享 / 日历"><defs>
  <filter id="softShadow" x="-20%" y="-20%" width="140%" height="140%"><feDropShadow dx="0" dy="18" stdDeviation="26" flood-color="#111213" flood-opacity="0.10"/></filter>
  <filter id="smallShadow" x="-20%" y="-20%" width="140%" height="140%"><feDropShadow dx="0" dy="8" stdDeviation="12" flood-color="#111213" flood-opacity="0.08"/></filter>
  <linearGradient id="warmGrad" x1="0" y1="0" x2="1" y2="1"><stop stop-color="#FFFDF8"/><stop offset="1" stop-color="#F5EBD8"/></linearGradient>
  <linearGradient id="yellowGrad" x1="0" y1="0" x2="1" y2="0"><stop stop-color="#FFCC33"/><stop offset="1" stop-color="#FFD84D"/></linearGradient>
  <linearGradient id="darkGrad" x1="0" y1="0" x2="1" y2="1"><stop stop-color="#111213"/><stop offset="1" stop-color="#242220"/></linearGradient>
  <linearGradient id="blueGrad" x1="0" y1="0" x2="1" y2="1"><stop stop-color="#EAF4FF"/><stop offset="1" stop-color="#D8EBFF"/></linearGradient>
  
</defs> <rect width="100%" height="100%" fill="#F7F1E7"/><circle cx="1370" cy="140" r="260" fill="#FFE88A" opacity="0.38"/><circle cx="40" cy="960" r="290" fill="#EAF0F2" opacity="0.8"/> <rect x="92" y="46" width="1416" height="76" rx="30" fill="#FFFDF8" stroke="#E7DDCE" stroke-width="1" opacity="1"/><circle cx="130" cy="84" r="18" fill="#FFCC33" stroke="none" stroke-width="1" opacity="1"/><circle cx="138" cy="76" r="7" fill="#111213" stroke="none" stroke-width="1" opacity="1"/><text x="162" y="91" font-family="Noto Sans CJK SC, Microsoft YaHei, PingFang SC, Arial, sans-serif" font-size="18" fill="#111213" font-weight="800" text-anchor="start" opacity="1" ><tspan x="162" dy="0">周末有谱</tspan></text><text x="419" y="91" font-family="Noto Sans CJK SC, Microsoft YaHei, PingFang SC, Arial, sans-serif" font-size="15" fill="#111213" font-weight="700" text-anchor="middle" opacity="1" ><tspan x="419" dy="0">首页</tspan></text><rect x="495.0" y="62" width="126" height="44" rx="22" fill="#FFCC33" stroke="none" stroke-width="1" opacity="1" filter="url(#smallShadow)"/><text x="558" y="88.5" font-family="Noto Sans CJK SC, Microsoft YaHei, PingFang SC, Arial, sans-serif" font-size="15" fill="#111213" font-weight="800" text-anchor="middle" opacity="1" ><tspan x="558" dy="0">功能页卡</tspan></text><text x="698" y="91" font-family="Noto Sans CJK SC, Microsoft YaHei, PingFang SC, Arial, sans-serif" font-size="15" fill="#111213" font-weight="700" text-anchor="middle" opacity="1" ><tspan x="698" dy="0">场景案例</tspan></text><text x="838" y="91" font-family="Noto Sans CJK SC, Microsoft YaHei, PingFang SC, Arial, sans-serif" font-size="15" fill="#111213" font-weight="700" text-anchor="middle" opacity="1" ><tspan x="838" dy="0">设计亮点</tspan></text><text x="978" y="91" font-family="Noto Sans CJK SC, Microsoft YaHei, PingFang SC, Arial, sans-serif" font-size="15" fill="#111213" font-weight="700" text-anchor="middle" opacity="1" ><tspan x="978" dy="0">开发者</tspan></text><text x="1111" y="91" font-family="Noto Sans CJK SC, Microsoft YaHei, PingFang SC, Arial, sans-serif" font-size="15" fill="#111213" font-weight="700" text-anchor="middle" opacity="1" ><tspan x="1111" dy="0">个人中心</tspan></text><text x="1235" y="91" font-family="Noto Sans CJK SC, Microsoft YaHei, PingFang SC, Arial, sans-serif" font-size="15" fill="#111213" font-weight="700" text-anchor="middle" opacity="1" ><tspan x="1235" dy="0">小明</tspan></text><rect x="1295" y="62" width="122" height="44" rx="22" fill="#FFCC33" stroke="none" stroke-width="1" opacity="1" filter="url(#smallShadow)"/><text x="1356" y="88.5" font-family="Noto Sans CJK SC, Microsoft YaHei, PingFang SC, Arial, sans-serif" font-size="15" fill="#111213" font-weight="800" text-anchor="middle" opacity="1" ><tspan x="1356" dy="0">退出</tspan></text> <svg x="80" y="130" width="1440" height="855" viewBox="0 125 1440 855" preserveAspectRatio="xMidYMid meet">
<defs>
  <filter id="shadow" x="-20%" y="-20%" width="140%" height="140%"><feDropShadow dx="0" dy="18" stdDeviation="18" flood-color="#0D0D0D" flood-opacity="0.13"/></filter>
  <filter id="softShadow" x="-25%" y="-25%" width="150%" height="150%"><feDropShadow dx="0" dy="8" stdDeviation="12" flood-color="#111111" flood-opacity="0.08"/></filter>
  <linearGradient id="heroGrad" x1="0" x2="1" y1="0" y2="1"><stop offset="0%" stop-color="#FFF9D8"/><stop offset="45%" stop-color="#FFFFFF"/><stop offset="100%" stop-color="#E9F2FF"/></linearGradient>
  <linearGradient id="darkGrad" x1="0" x2="1" y1="0" y2="1"><stop offset="0%" stop-color="#111214"/><stop offset="100%" stop-color="#26201A"/></linearGradient>
  <linearGradient id="sunset" x1="0" x2="1" y1="0" y2="0"><stop offset="0%" stop-color="#FFD235"/><stop offset="100%" stop-color="#FF8A00"/></linearGradient>
  <style>
    text { font-family:Noto Sans CJK SC, PingFang SC, Microsoft YaHei, Arial, sans-serif; dominant-baseline: alphabetic; }
    .h1 { font-size:64px; font-weight:800; letter-spacing:-1.8px; fill:#171717; }
    .h2 { font-size:36px; font-weight:800; letter-spacing:-0.6px; fill:#171717; }
    .h3 { font-size:23px; font-weight:800; fill:#171717; }
    .body { font-size:16px; fill:#6F6B64; }
    .small { font-size:13px; fill:#6F6B64; }
    .tiny { font-size:11px; fill:#6F6B64; }
    .nav { font-size:15px; font-weight:700; fill:#171717; }
  </style>
</defs>
<rect x="0" y="0" width="1440" height="1000" rx="0" fill="#F7F4EC" stroke="none" stroke-width="1" opacity="1" /><circle cx="1220" cy="132" r="230" fill="#FFE781" stroke="none" stroke-width="1" opacity="0.32"/><circle cx="150" cy="840" r="260" fill="#DDEBFF" stroke="none" stroke-width="1" opacity="0.38"/><rect x="64" y="32" width="1312" height="72" rx="28" fill="rgba(255,255,255,0.78)" stroke="#EAE2D5" stroke-width="1" opacity="0.96" filter="url(#softShadow)"/><circle cx="94" cy="68" r="16" fill="#FFD235" stroke="none" stroke-width="1" opacity="1"/><circle cx="104" cy="62" r="5" fill="#111214" stroke="none" stroke-width="1" opacity="1"/><text x="120" y="75" class="nav" text-anchor="start" style="font-size:18px;font-weight:800;fill:#171717">周末有谱</text><rect x="312" y="48" width="92" height="40" rx="20" fill="transparent" stroke="none" stroke-width="1" opacity="0.96" /><text x="348" y="74" class="nav" text-anchor="middle" style="font-size:15px;font-weight:800;fill:#171717">首页</text><rect x="420" y="48" width="110" height="40" rx="20" fill="#FFD235" stroke="none" stroke-width="1" opacity="0.96" /><text x="466" y="74" class="nav" text-anchor="middle" style="font-size:15px;font-weight:800;fill:#171717">功能页卡</text><rect x="550" y="48" width="92" height="40" rx="20" fill="transparent" stroke="none" stroke-width="1" opacity="0.96" /><text x="586" y="74" class="nav" text-anchor="middle" style="font-size:15px;font-weight:800;fill:#171717">场景案例</text><rect x="658" y="48" width="92" height="40" rx="20" fill="transparent" stroke="none" stroke-width="1" opacity="0.96" /><text x="694" y="74" class="nav" text-anchor="middle" style="font-size:15px;font-weight:800;fill:#171717">设计亮点</text><rect x="766" y="48" width="92" height="40" rx="20" fill="transparent" stroke="none" stroke-width="1" opacity="0.96" /><text x="802" y="74" class="nav" text-anchor="middle" style="font-size:15px;font-weight:800;fill:#171717">开发者</text><text x="1090" y="74" class="nav" text-anchor="start" style="font-size:15px;font-weight:800;fill:#171717">登录</text><rect x="1160" y="48" width="150" height="40" rx="20" fill="#FFD235" stroke="none" stroke-width="1" opacity="1" filter="url(#softShadow)"/><text x="1235.0" y="74.0" class="body" text-anchor="middle" style="font-size:16px;font-weight:800;fill:#171717">免费注册</text><text x="80" y="158" class="h2" text-anchor="start" style="font-size:34px;font-weight:800;fill:#171717">协作分享与日历</text><text x="82" y="190" class="body" text-anchor="start" style="font-size:15px;font-weight:600;fill:#6F6B64">多人周末决策通常卡在“大家都说随便”，因此需要轻量协作。</text><rect x="80" y="220" width="520" height="650" rx="34" fill="#fff" stroke="#E8E1D6" stroke-width="1" opacity="1" filter="url(#softShadow)"/><text x="124" y="286" class="h2" text-anchor="start" style="font-size:34px;font-weight:800;fill:#171717">邀请家人朋友投票</text><circle cx="134" cy="354" r="24" fill="#FFD235" stroke="none" stroke-width="1" opacity="1"/><text x="176" y="352" class="body" text-anchor="start" style="font-size:17px;font-weight:800;fill:#171717">女朋友</text><text x="176" y="378" class="small" text-anchor="start" style="font-size:13px;font-weight:600;fill:#6F6B64">喜欢展览</text><rect x="420" y="336" width="112" height="36" rx="18" fill="#F6F4F0" stroke="#E8E1D6" stroke-width="1" opacity="1" /><text x="476" y="359" class="small" text-anchor="middle" style="font-size:13px;font-weight:800;fill:#171717">匹配 88</text><circle cx="134" cy="444" r="24" fill="#DDEBFF" stroke="none" stroke-width="1" opacity="1"/><text x="176" y="442" class="body" text-anchor="start" style="font-size:17px;font-weight:800;fill:#171717">朋友 A</text><text x="176" y="468" class="small" text-anchor="start" style="font-size:13px;font-weight:600;fill:#6F6B64">想吃火锅</text><rect x="420" y="426" width="112" height="36" rx="18" fill="#F6F4F0" stroke="#E8E1D6" stroke-width="1" opacity="1" /><text x="476" y="449" class="small" text-anchor="middle" style="font-size:13px;font-weight:800;fill:#171717">匹配 72</text><circle cx="134" cy="534" r="24" fill="#DEF7E8" stroke="none" stroke-width="1" opacity="1"/><text x="176" y="532" class="body" text-anchor="start" style="font-size:17px;font-weight:800;fill:#171717">朋友 B</text><text x="176" y="558" class="small" text-anchor="start" style="font-size:13px;font-weight:600;fill:#6F6B64">预算较低</text><rect x="420" y="516" width="112" height="36" rx="18" fill="#F6F4F0" stroke="#E8E1D6" stroke-width="1" opacity="1" /><text x="476" y="539" class="small" text-anchor="middle" style="font-size:13px;font-weight:800;fill:#171717">匹配 65</text><circle cx="134" cy="624" r="24" fill="#FFE3E8" stroke="none" stroke-width="1" opacity="1"/><text x="176" y="622" class="body" text-anchor="start" style="font-size:17px;font-weight:800;fill:#171717">爸妈</text><text x="176" y="648" class="small" text-anchor="start" style="font-size:13px;font-weight:600;fill:#6F6B64">少走路</text><rect x="420" y="606" width="112" height="36" rx="18" fill="#F6F4F0" stroke="#E8E1D6" stroke-width="1" opacity="1" /><text x="476" y="629" class="small" text-anchor="middle" style="font-size:13px;font-weight:800;fill:#171717">匹配 92</text><rect x="124" y="742" width="300" height="56" rx="22" fill="#FFD235" stroke="none" stroke-width="1" opacity="1" /><text x="274" y="778" class="body" text-anchor="middle" style="font-size:17px;font-weight:800;fill:#171717">复制分享链接</text><rect x="660" y="220" width="660" height="650" rx="34" fill="#111214" stroke="#E8E1D6" stroke-width="1" opacity="1" filter="url(#softShadow)"/><text x="710" y="286" class="h2" text-anchor="start" style="font-size:34px;font-weight:800;fill:#fff">日历与提醒</text><text x="730" y="350" class="small" text-anchor="middle" style="font-size:13px;font-weight:800;fill:#AAA399">一</text><text x="810" y="350" class="small" text-anchor="middle" style="font-size:13px;font-weight:800;fill:#AAA399">二</text><text x="890" y="350" class="small" text-anchor="middle" style="font-size:13px;font-weight:800;fill:#AAA399">三</text><text x="970" y="350" class="small" text-anchor="middle" style="font-size:13px;font-weight:800;fill:#AAA399">四</text><text x="1050" y="350" class="small" text-anchor="middle" style="font-size:13px;font-weight:800;fill:#AAA399">五</text><text x="1130" y="350" class="small" text-anchor="middle" style="font-size:13px;font-weight:800;fill:#AAA399">六</text><text x="1210" y="350" class="small" text-anchor="middle" style="font-size:13px;font-weight:800;fill:#AAA399">日</text><rect x="696" y="380" width="62" height="54" rx="18" fill="#1E2023" stroke="#333" stroke-width="1" opacity="1" /><text x="727" y="414" class="small" text-anchor="middle" style="font-size:13px;font-weight:800;fill:#fff">1</text><rect x="776" y="380" width="62" height="54" rx="18" fill="#1E2023" stroke="#333" stroke-width="1" opacity="1" /><text x="807" y="414" class="small" text-anchor="middle" style="font-size:13px;font-weight:800;fill:#fff">2</text><rect x="856" y="380" width="62" height="54" rx="18" fill="#1E2023" stroke="#333" stroke-width="1" opacity="1" /><text x="887" y="414" class="small" text-anchor="middle" style="font-size:13px;font-weight:800;fill:#fff">3</text><rect x="936" y="380" width="62" height="54" rx="18" fill="#1E2023" stroke="#333" stroke-width="1" opacity="1" /><text x="967" y="414" class="small" text-anchor="middle" style="font-size:13px;font-weight:800;fill:#fff">4</text><rect x="1016" y="380" width="62" height="54" rx="18" fill="#1E2023" stroke="#333" stroke-width="1" opacity="1" /><text x="1047" y="414" class="small" text-anchor="middle" style="font-size:13px;font-weight:800;fill:#fff">5</text><rect x="1096" y="380" width="62" height="54" rx="18" fill="#1E2023" stroke="#333" stroke-width="1" opacity="1" /><text x="1127" y="414" class="small" text-anchor="middle" style="font-size:13px;font-weight:800;fill:#fff">6</text><rect x="1176" y="380" width="62" height="54" rx="18" fill="#1E2023" stroke="#333" stroke-width="1" opacity="1" /><text x="1207" y="414" class="small" text-anchor="middle" style="font-size:13px;font-weight:800;fill:#fff">7</text><rect x="696" y="458" width="62" height="54" rx="18" fill="#1E2023" stroke="#333" stroke-width="1" opacity="1" /><text x="727" y="492" class="small" text-anchor="middle" style="font-size:13px;font-weight:800;fill:#fff">8</text><rect x="776" y="458" width="62" height="54" rx="18" fill="#1E2023" stroke="#333" stroke-width="1" opacity="1" /><text x="807" y="492" class="small" text-anchor="middle" style="font-size:13px;font-weight:800;fill:#fff">9</text><rect x="856" y="458" width="62" height="54" rx="18" fill="#1E2023" stroke="#333" stroke-width="1" opacity="1" /><text x="887" y="492" class="small" text-anchor="middle" style="font-size:13px;font-weight:800;fill:#fff">10</text><rect x="936" y="458" width="62" height="54" rx="18" fill="#1E2023" stroke="#333" stroke-width="1" opacity="1" /><text x="967" y="492" class="small" text-anchor="middle" style="font-size:13px;font-weight:800;fill:#fff">11</text><rect x="1016" y="458" width="62" height="54" rx="18" fill="#1E2023" stroke="#333" stroke-width="1" opacity="1" /><text x="1047" y="492" class="small" text-anchor="middle" style="font-size:13px;font-weight:800;fill:#fff">12</text><rect x="1096" y="458" width="62" height="54" rx="18" fill="#1E2023" stroke="#333" stroke-width="1" opacity="1" /><text x="1127" y="492" class="small" text-anchor="middle" style="font-size:13px;font-weight:800;fill:#fff">13</text><rect x="1176" y="458" width="62" height="54" rx="18" fill="#1E2023" stroke="#333" stroke-width="1" opacity="1" /><text x="1207" y="492" class="small" text-anchor="middle" style="font-size:13px;font-weight:800;fill:#fff">14</text><rect x="696" y="536" width="62" height="54" rx="18" fill="#1E2023" stroke="#333" stroke-width="1" opacity="1" /><text x="727" y="570" class="small" text-anchor="middle" style="font-size:13px;font-weight:800;fill:#fff">15</text><rect x="776" y="536" width="62" height="54" rx="18" fill="#1E2023" stroke="#333" stroke-width="1" opacity="1" /><text x="807" y="570" class="small" text-anchor="middle" style="font-size:13px;font-weight:800;fill:#fff">16</text><rect x="856" y="536" width="62" height="54" rx="18" fill="#1E2023" stroke="#333" stroke-width="1" opacity="1" /><text x="887" y="570" class="small" text-anchor="middle" style="font-size:13px;font-weight:800;fill:#fff">17</text><rect x="936" y="536" width="62" height="54" rx="18" fill="#1E2023" stroke="#333" stroke-width="1" opacity="1" /><text x="967" y="570" class="small" text-anchor="middle" style="font-size:13px;font-weight:800;fill:#fff">18</text><rect x="1016" y="536" width="62" height="54" rx="18" fill="#1E2023" stroke="#333" stroke-width="1" opacity="1" /><text x="1047" y="570" class="small" text-anchor="middle" style="font-size:13px;font-weight:800;fill:#fff">19</text><rect x="1096" y="536" width="62" height="54" rx="18" fill="#FFD235" stroke="#333" stroke-width="1" opacity="1" /><text x="1127" y="570" class="small" text-anchor="middle" style="font-size:13px;font-weight:800;fill:#171717">20</text><rect x="1176" y="536" width="62" height="54" rx="18" fill="#1E2023" stroke="#333" stroke-width="1" opacity="1" /><text x="1207" y="570" class="small" text-anchor="middle" style="font-size:13px;font-weight:800;fill:#fff">21</text><rect x="696" y="614" width="62" height="54" rx="18" fill="#1E2023" stroke="#333" stroke-width="1" opacity="1" /><text x="727" y="648" class="small" text-anchor="middle" style="font-size:13px;font-weight:800;fill:#fff">22</text><rect x="776" y="614" width="62" height="54" rx="18" fill="#1E2023" stroke="#333" stroke-width="1" opacity="1" /><text x="807" y="648" class="small" text-anchor="middle" style="font-size:13px;font-weight:800;fill:#fff">23</text><rect x="856" y="614" width="62" height="54" rx="18" fill="#1E2023" stroke="#333" stroke-width="1" opacity="1" /><text x="887" y="648" class="small" text-anchor="middle" style="font-size:13px;font-weight:800;fill:#fff">24</text><rect x="936" y="614" width="62" height="54" rx="18" fill="#1E2023" stroke="#333" stroke-width="1" opacity="1" /><text x="967" y="648" class="small" text-anchor="middle" style="font-size:13px;font-weight:800;fill:#fff">25</text><rect x="1016" y="614" width="62" height="54" rx="18" fill="#1E2023" stroke="#333" stroke-width="1" opacity="1" /><text x="1047" y="648" class="small" text-anchor="middle" style="font-size:13px;font-weight:800;fill:#fff">26</text><rect x="1096" y="614" width="62" height="54" rx="18" fill="#1E2023" stroke="#333" stroke-width="1" opacity="1" /><text x="1127" y="648" class="small" text-anchor="middle" style="font-size:13px;font-weight:800;fill:#fff">27</text><rect x="1176" y="614" width="62" height="54" rx="18" fill="#1E2023" stroke="#333" stroke-width="1" opacity="1" /><text x="1207" y="648" class="small" text-anchor="middle" style="font-size:13px;font-weight:800;fill:#fff">28</text><rect x="720" y="710" width="500" height="70" rx="22" fill="#1E2023" stroke="#333" stroke-width="1" opacity="1" /><text x="750" y="750" class="body" text-anchor="start" style="font-size:15px;font-weight:700;fill:#fff">周六 14:00 出发 · 提前 30 分钟提醒 · 雨天自动提醒改方案</text></svg> <rect x="108" y="137" width="520" height="34" rx="17" fill="#111213" stroke="none" stroke-width="1" opacity="0.92" filter="url(#smallShadow)"/><text x="132" y="160" font-family="Noto Sans CJK SC, Microsoft YaHei, PingFang SC, Arial, sans-serif" font-size="14" fill="#FFFDF8" font-weight="800" text-anchor="start" opacity="1" ><tspan x="132" dy="0">054 · I28 差异版本保留 · 已重排为 D43 导航：分享 / 日历</tspan></text></svg>